# xmcd
#
# Track frame offsets:
#	150
#	16082
#	32779
#	45128
#	63526
#	78346
#	95571
#	111771
#	129229
#	143331
#	155924
#	174398
#	191229
#	206236
#	223361
#	236669
#	249505
#	269122
#	287581
#	306090
#	324133
#
# Disc length: 4626 seconds
#
# Revision: 1
# Processed by: cddbd v1.5.2PL0 Copyright (c) Steve Scherf et al.
# Submitted via: audiograbber 1.83.01
#
DISCID=2e121015
DTITLE=Scooter Lee - The Best orf
DYEAR=2000
DGENRE=
TTITLE0=Honky Tonk Twist
TTITLE1=Jái du Boogie
TTITLE2=Dizzy
TTITLE3=Robbin of Highway
TTITLE4=Honey Hush
TTITLE5=Shadows In The Night 
TTITLE6=Old Friend
TTITLE7=Rose Garden
TTITLE8=High Test Love
TTITLE9=Rompin´Stompin´
TTITLE10=Somebody Loves You
TTITLE11=Take it From Me
TTITLE12=Baby Please Come Home
TTITLE13=I Still Believe
TTITLE14=Walk On By
TTITLE15=Here Lately
TTITLE16=Baby Once I Get You (Mix)
TTITLE17=Rex The Robot
TTITLE18=Break-A-Way
TTITLE19=Deal With It
TTITLE20=Dancin´ In The Streets
EXTD=
EXTT0=
EXTT1=
EXTT2=
EXTT3=
EXTT4=
EXTT5=
EXTT6=
EXTT7=
EXTT8=
EXTT9=
EXTT10=
EXTT11=
EXTT12=
EXTT13=
EXTT14=
EXTT15=
EXTT16=
EXTT17=
EXTT18=
EXTT19=
EXTT20=
PLAYORDER=
